HIERARCHY
ROOT Hips
{
	OFFSET -3.958830 18.904000 13.208200
	CHANNELS 6 Xposition Yposition Zposition Zrotation Yrotation Xrotation 
	JOINT LHipJoint
	{
		OFFSET 0.000000 0.000000 0.000000
		CHANNELS 3 Zrotation Yrotation Xrotation
		JOINT LeftUpLeg
		{
			OFFSET 1.800000 -1.400000 0.085000
			CHANNELS 3 Zrotation Yrotation Xrotation
			JOINT LeftLeg
			{
				OFFSET 2.215000 -6.000000 0.000000
				CHANNELS 3 Zrotation Yrotation Xrotation
				JOINT LeftFoot
				{
					OFFSET 2.500000 -6.900000 0.000000
					CHANNELS 3 Zrotation Yrotation Xrotation
					JOINT LeftToeBase
					{
						OFFSET 0.200000 -0.500000 1.950000
						CHANNELS 3 Zrotation Yrotation Xrotation
						End Site
						{
							OFFSET 0.000000 0.000000 0.000000
						}
					}
				}
			}
		}
	}
	JOINT RHipJoint
	{
		OFFSET 0.000000 0.000000 0.000000
		CHANNELS 3 Zrotation Yrotation Xrotation
		JOINT RightUpLeg
		{
			OFFSET -1.800000 -1.400000 0.085000
			CHANNELS 3 Zrotation Yrotation Xrotation
			JOINT RightLeg
			{
				OFFSET -2.215000 -6.000000 0.000000
				CHANNELS 3 Zrotation Yrotation Xrotation
				JOINT RightFoot
				{
					OFFSET -2.500000 -6.900000 0.000000
					CHANNELS 3 Zrotation Yrotation Xrotation
					JOINT RightToeBase
					{
						OFFSET -0.200000 -0.500000 1.950000
						CHANNELS 3 Zrotation Yrotation Xrotation
						End Site
						{
							OFFSET 0.000000 0.000000 0.000000
						}
					}
				}
			}
		}
	}
	JOINT LowerBack
	{
		OFFSET 0.000000 0.000000 0.000000
		CHANNELS 3 Zrotation Yrotation Xrotation
		JOINT Spine
		{
			OFFSET -0.087000 1.940000 -0.288900
			CHANNELS 3 Zrotation Yrotation Xrotation
			JOINT Spine1
			{
				OFFSET 0.000000 1.950000 0.060000
				CHANNELS 3 Zrotation Yrotation Xrotation
				JOINT Neck
				{
					OFFSET 0.000000 0.000000 0.000000
					CHANNELS 3 Zrotation Yrotation Xrotation
					JOINT Neck1
					{
						OFFSET 0.000000 1.600000 0.340000
						CHANNELS 3 Zrotation Yrotation Xrotation
						JOINT Head
						{
							OFFSET 0.000000 1.667000 -0.240000
							CHANNELS 3 Zrotation Yrotation Xrotation
							End Site
							{
								OFFSET 0.000000 0.000000 0.000000
							}
						}
					}
				}
				JOINT LeftShoulder
				{
					OFFSET 0.000000 0.000000 0.000000
					CHANNELS 3 Zrotation Yrotation Xrotation
					JOINT LeftArm
					{
						OFFSET 2.700000 1.550000 -0.730000
						CHANNELS 3 Zrotation Yrotation Xrotation
						JOINT LeftForeArm
						{
							OFFSET 5.450000 0.000000 0.000000
							CHANNELS 3 Zrotation Yrotation Xrotation
							JOINT LeftHand
							{
								OFFSET 3.450000 0.000000 0.000000
								CHANNELS 3 Zrotation Yrotation Xrotation
								JOINT LeftHandIndex1
								{
									OFFSET 0.750000 0.000000 0.000000
									CHANNELS 3 Zrotation Yrotation Xrotation
									End Site
									{
										OFFSET 0.000000 0.000000 0.000000
									}
								}
							}
						}
					}
				}
				JOINT RightShoulder
				{
					OFFSET 0.000000 0.000000 0.000000
					CHANNELS 3 Zrotation Yrotation Xrotation
					JOINT RightArm
					{
						OFFSET -2.700000 1.550000 -0.730000
						CHANNELS 3 Zrotation Yrotation Xrotation
						JOINT RightForeArm
						{
							OFFSET -5.450000 0.000000 0.000000
							CHANNELS 3 Zrotation Yrotation Xrotation
							JOINT RightHand
							{
								OFFSET -3.450000 0.000000 0.000000
								CHANNELS 3 Zrotation Yrotation Xrotation
								JOINT RightHandIndex1
								{
									OFFSET -0.750000 0.000000 0.000000
									CHANNELS 3 Zrotation Yrotation Xrotation
									End Site
									{
										OFFSET 0.000000 0.000000 0.000000
									}
								}
							}
						}
					}
				}
			}
		}
	}
}
MOTION
Frames: 9
Frame Time: 0.016667
-1.040490 17.228160 -2.599000 -9.686166 -50.759026 8.281086 -16.038120 11.570646 5.974739 30.945870 -2.466561 -17.146124 -43.417942 12.837076 6.386950 0.644308 9.599115 1.311311 0.884640 0.647140 0.547810 17.858431 -8.492652 1.836947 -3.386571 2.188362 -16.725884 5.787837 -3.315376 7.647813 -0.195821 -2.505260 3.667125 0.499620 0.407690 0.346370 -2.597529 -4.472358 -8.147074 -0.021893 -5.098095 14.147540 -6.230580 -2.917899 6.109983 -0.659807 -9.792444 -6.895078 -21.929077 23.765589 19.371074 0.741690 18.474890 -10.306920 -22.750461 4.067431 0.331312 -35.898344 -13.706200 7.298064 164.310287 -48.540115 -157.705103 -3.947552 3.536506 0.405350 0.336520 -0.043770 0.438800 24.054483 -0.401632 4.240821 23.564807 -16.245759 -7.293536 44.771239 63.871662 21.937333 1.504378 -2.533004 -0.150480 0.265260 -0.278490 -0.200240 
-1.053190 17.225210 -2.586380 -9.724190 -50.466937 7.822297 -16.021043 11.652940 5.913521 30.775697 -2.363220 -16.907209 -43.054748 13.219600 7.171346 0.659687 9.635632 1.301814 0.868460 0.616990 0.540940 17.862223 -8.535432 1.835628 -3.449809 2.080168 -16.154927 5.760371 -3.380453 7.789543 -0.204376 -2.540202 3.658068 0.473040 0.405550 0.349930 -2.554027 -4.495224 -8.138415 -0.103200 -5.004482 14.355000 -5.843411 -2.832022 6.227497 -0.650115 -9.776873 -6.989225 -21.982417 23.642571 20.022050 0.834140 18.333710 -10.148360 -22.110581 4.489559 0.518882 -35.140424 -12.514391 6.005296 159.500789 -48.374408 -148.418507 -3.977587 3.473363 0.416080 0.326580 -0.042110 0.432860 23.409286 -0.564486 4.251854 23.442812 -16.261486 -7.495453 46.338326 66.651075 23.949525 1.521520 -2.546774 -0.148080 0.257020 -0.269560 -0.200870 
-1.060560 17.224840 -2.573800 -10.131827 -50.028813 7.648203 -15.992386 11.713278 5.847930 30.690466 -2.243960 -16.699217 -42.370675 13.503308 7.909637 0.655790 9.632545 1.302310 0.862810 0.603530 0.543860 17.876513 -8.593408 1.851743 -3.353209 2.011169 -15.632066 5.965902 -3.501756 8.091194 -0.217914 -2.585346 3.650756 0.458390 0.391890 0.339770 -2.573570 -4.453729 -8.131704 0.346750 -4.910193 14.687449 -5.571683 -2.727420 6.380534 -0.627368 -9.787457 -7.065269 -22.077956 23.334085 20.724544 0.649610 18.098210 -10.310010 -21.410902 4.943865 0.574001 -34.261632 -11.426668 4.790862 154.810601 -48.654400 -139.814354 -3.988452 3.394354 0.431830 0.309800 -0.034810 0.431530 22.624371 -0.796860 4.317086 23.336419 -16.483980 -7.659156 48.822510 69.724314 26.639498 1.543977 -2.553468 -0.150880 0.257510 -0.273340 -0.205160 
-1.065230 17.221220 -2.559390 -10.524223 -49.559963 7.707525 -15.958444 11.757466 5.783606 30.524545 -2.124520 -16.718278 -41.722456 13.809789 8.690048 0.673033 9.611499 1.309546 0.848090 0.586560 0.540320 17.894468 -8.660083 1.878399 -3.284615 2.006169 -15.426582 6.202743 -3.610935 8.428144 -0.217763 -2.624801 3.644799 0.436930 0.378130 0.332810 -2.628381 -4.366206 -8.124801 1.050748 -4.851849 14.836253 -5.494444 -2.720394 6.263102 -0.473278 -9.724971 -7.115071 -21.895869 22.986109 21.415392 0.296820 18.046110 -9.785420 -20.709046 5.533416 0.555105 -33.023110 -10.016809 3.567421 149.955241 -49.337206 -131.394485 -4.004849 3.326773 0.422600 0.303160 -0.034900 0.427820 21.610648 -1.273831 4.373677 23.259740 -16.501679 -7.385845 52.885882 73.062643 30.684852 1.607291 -2.547017 -0.142350 0.237710 -0.281220 -0.202960 
-1.067820 17.213480 -2.544450 -10.414078 -48.729839 7.464255 -15.935397 11.845137 5.705270 29.991704 -2.130050 -16.982465 -40.992470 14.077275 9.625096 0.665826 9.572874 1.315850 0.832540 0.568570 0.540280 17.898557 -8.714672 1.882124 -3.567381 1.943302 -15.206624 6.318066 -3.702528 8.701923 -0.221157 -2.657717 3.629477 0.420080 0.363320 0.329020 -2.590408 -4.379228 -8.101911 1.072635 -4.724640 14.743455 -5.149042 -2.700970 6.534053 -0.333707 -9.490261 -7.266882 -21.311677 22.620220 22.181483 -0.038200 18.036700 -9.699920 -19.452859 6.026724 0.589505 -31.875972 -8.758083 2.498766 144.477965 -49.805886 -122.146240 -4.019318 3.228427 0.426140 0.294190 -0.028770 0.418230 20.117947 -1.709641 4.566251 23.421151 -16.473691 -6.871063 58.929027 76.411496 36.174424 1.709385 -2.454659 -0.141150 0.225500 -0.280730 -0.206470 
-1.066120 17.201260 -2.528260 -10.124120 -47.586866 7.356902 -15.924239 11.928236 5.625722 29.304213 -2.255434 -17.869007 -40.230427 14.509872 11.076164 0.626173 9.578889 1.306423 0.823980 0.550460 0.542620 17.894313 -8.749876 1.884673 -4.110349 1.908036 -15.162862 6.739625 -3.834063 8.829469 -0.218076 -2.716149 3.608563 0.416930 0.370770 0.333620 -2.523082 -4.423632 -8.064470 0.898606 -4.587053 14.290155 -4.606993 -2.711181 6.916641 -0.245008 -9.166937 -7.300486 -20.424088 22.277271 22.632035 -0.368510 18.002330 -9.491940 -18.337052 6.516314 0.490912 -30.538247 -7.604861 1.657788 138.537173 -50.203792 -112.365888 -4.049208 3.104922 0.430370 0.307940 -0.037960 0.412670 18.890570 -2.247919 4.825769 22.893218 -16.598667 -5.826374 65.988596 80.084398 42.595241 1.874312 -2.198407 -0.153340 0.224010 -0.272940 -0.216930 
-1.067460 17.193510 -2.511660 -10.078446 -46.744163 7.342363 -15.913846 11.981755 5.548226 28.803963 -2.264564 -18.366307 -39.469598 14.805126 12.114544 0.592926 9.572763 1.308632 0.825920 0.542210 0.562510 17.893924 -8.794518 1.892525 -4.344429 1.903381 -15.095812 6.996194 -3.937918 9.059711 -0.219753 -2.764516 3.592532 0.419750 0.372450 0.336650 -2.482568 -4.393954 -8.032943 0.835800 -4.314654 13.724628 -4.111534 -2.600069 7.545174 -0.085696 -8.712370 -7.316190 -19.245563 21.883259 23.426249 -0.878810 18.109700 -9.334030 -17.442875 6.666762 0.316138 -28.395411 -6.355529 0.744083 131.900743 -50.973429 -102.356464 -4.064493 2.946808 0.433770 0.320880 -0.040180 0.412260 17.721231 -2.569423 5.135363 21.977906 -16.354321 -4.436506 73.427342 83.206575 49.055918 2.238716 -1.546231 -0.165080 0.225420 -0.279140 -0.230090 
-1.071510 17.189010 -2.494700 -10.102661 -46.150871 7.259487 -15.893706 12.032225 5.454894 28.329754 -2.193219 -18.581050 -38.635642 15.099651 13.107647 0.552073 9.559376 1.308124 0.834600 0.550690 0.581910 17.901091 -8.852361 1.914395 -4.462658 1.871166 -14.840318 7.229941 -4.007116 9.098061 -0.226973 -2.811312 3.575296 0.435330 0.368460 0.329790 -2.475861 -4.324479 -8.005546 0.830975 -3.980368 13.297605 -3.622711 -2.433472 8.032374 -0.023007 -8.368073 -7.268877 -18.398300 21.597447 24.182645 -1.167510 18.033760 -9.508830 -16.594037 6.747031 0.153189 -26.012742 -5.108792 0.023732 124.558068 -52.333087 -92.544614 -4.057677 2.738131 0.439670 0.325430 -0.038570 0.410250 16.794373 -2.711489 5.216634 20.449180 -15.661736 -3.113584 78.982315 85.709754 54.593186 2.727940 -0.515025 -0.178240 0.237590 -0.285320 -0.241540 
-1.077790 17.186150 -2.479360 -9.888737 -45.306511 7.213954 -15.891550 12.108720 5.354404 27.658609 -2.183114 -19.037051 -37.606138 15.306626 14.110758 0.508566 9.514984 1.316600 0.843180 0.568170 0.597500 17.891952 -8.893658 1.920942 -4.671189 1.878689 -14.882813 7.428293 -4.091819 9.420854 -0.223133 -2.860239 3.552948 0.455980 0.375280 0.335600 -2.395691 -4.328343 -7.955540 0.254526 -3.656567 12.577024 -2.705995 -2.359091 8.500912 0.051105 -8.028700 -7.050221 -17.483181 21.275226 24.578236 -1.709190 17.986370 -9.438300 -15.990038 6.695849 0.111900 -23.482342 -3.364350 -0.640980 117.325050 -53.840665 -83.525051 -4.054266 2.513872 0.419120 0.349380 -0.043920 0.407620 16.211333 -2.570455 4.926041 17.947051 -15.087061 -2.292049 84.704541 87.097648 60.821178 3.333401 1.080422 -0.179040 0.242440 -0.289150 -0.244600 
